<?xml version="1.0" encoding="UTF-8" ?>
<!DOCTYPE svg PUBLIC "-//W3C//DTD SVG 1.1//EN" "http://www.w3.org/Graphics/SVG/1.1/DTD/svg11.dtd">
<svg width="160pt" height="160pt" viewBox="0 0 160 160" version="1.1" xmlns="http://www.w3.org/2000/svg">
<g id="#0a1c42da">
<path fill="#0a1c42" stroke="#0a1c42" stroke-width="0.09375" opacity="0.85" d=" M 79.04 17.18 C 85.63 16.79 89.96 10.64 96.15 9.01 C 100.79 8.86 104.05 13.68 104.05 17.96 C 104.13 21.68 100.49 24.51 97.03 24.76 C 91.75 24.33 86.73 20.70 81.34 22.33 C 77.34 24.12 74.53 27.67 71.77 30.94 C 73.48 33.26 74.85 36.07 77.46 37.52 C 81.71 38.56 86.12 38.74 90.41 39.57 C 94.19 40.08 97.96 41.14 101.80 40.86 C 107.23 37.37 109.91 30.83 115.49 27.47 C 122.90 23.32 133.89 28.53 134.95 37.08 C 135.30 42.01 132.94 46.73 133.29 51.64 C 134.66 55.29 138.60 57.03 142.21 57.60 C 144.69 58.14 147.44 57.95 149.65 59.34 C 154.07 63.02 152.44 71.40 146.87 72.99 C 140.91 73.79 135.20 68.88 129.32 71.24 C 124.16 74.00 121.89 79.88 117.44 83.46 C 113.49 86.42 107.64 84.96 104.46 81.54 C 99.66 76.44 101.46 66.60 108.17 64.11 C 114.79 62.92 120.44 67.91 126.91 67.99 C 131.25 67.35 134.57 64.14 138.04 61.72 C 135.91 58.69 133.76 55.48 130.56 53.49 C 126.09 52.54 121.37 53.55 116.98 52.07 C 112.37 50.89 108.10 47.97 103.23 48.15 C 97.63 50.54 94.42 56.48 88.61 58.52 C 84.31 60.20 78.82 58.28 77.14 53.84 C 75.75 49.48 76.64 44.77 75.50 40.36 C 74.81 37.98 72.68 35.76 70.02 36.01 C 64.04 35.73 57.15 38.10 51.99 33.98 C 44.97 29.24 45.43 17.90 51.86 12.87 C 54.97 10.51 59.00 8.86 62.94 9.77 C 68.85 10.97 73.19 15.88 79.04 17.18 Z" />
<path fill="#0a1c42" stroke="#0a1c42" stroke-width="0.09375" opacity="0.85" d=" M 113.69 13.92 C 116.24 13.35 118.54 14.23 120.03 16.36 C 118.38 17.77 116.40 18.67 114.27 19.07 C 114.07 17.35 113.87 15.64 113.69 13.92 Z" />
<path fill="#0a1c42" stroke="#0a1c42" stroke-width="0.09375" opacity="0.85" d=" M 139.17 46.98 C 140.77 46.84 142.38 46.78 144.00 46.81 C 143.94 48.18 143.87 49.56 143.79 50.93 C 142.25 50.91 140.71 50.89 139.17 50.87 C 139.16 49.57 139.16 48.28 139.17 46.98 Z" />
<path fill="#0a1c42" stroke="#0a1c42" stroke-width="0.09375" opacity="0.85" d=" M 129.92 76.22 C 131.57 75.57 133.21 74.89 134.83 74.19 C 135.49 75.74 136.19 77.29 136.90 78.83 C 135.33 79.47 133.78 80.14 132.24 80.83 C 131.49 79.28 130.71 77.75 129.92 76.22 Z" />
<path fill="#0a1c42" stroke="#0a1c42" stroke-width="0.09375" opacity="0.85" d=" M 128.90 88.97 C 133.52 80.38 147.47 80.42 152.45 88.59 C 155.52 93.21 156.00 99.81 152.30 104.22 C 147.71 109.41 140.22 110.45 135.33 115.27 C 133.43 116.93 134.19 119.74 133.98 121.96 C 133.80 125.81 134.75 130.13 132.58 133.58 C 129.79 136.75 123.76 137.68 121.02 133.95 C 117.70 129.59 117.55 123.81 116.09 118.71 C 119.74 119.32 124.52 121.66 127.53 118.45 C 131.30 114.71 130.16 108.86 128.71 104.33 C 127.07 99.42 125.65 93.57 128.90 88.97 Z" />
<path fill="#0a1c42" stroke="#0a1c42" stroke-width="0.09375" opacity="0.85" d=" M 102.46 96.58 C 106.86 95.68 112.46 97.11 114.23 101.67 C 116.07 106.46 114.92 111.74 114.77 116.72 C 108.81 116.84 101.45 119.13 96.74 114.25 C 90.88 108.83 94.97 97.97 102.46 96.58 Z" />
</g>
<g id="#d68805da">
<path fill="#d68805" stroke="#d68805" stroke-width="0.09375" opacity="0.85" d=" M 25.07 29.16 C 28.49 26.20 34.51 24.13 38.02 27.99 C 40.81 33.06 40.97 39.04 42.34 44.56 C 47.65 45.26 53.22 44.74 58.28 46.72 C 63.85 49.09 66.59 56.89 62.90 61.95 C 58.95 68.50 48.10 68.19 44.26 61.70 C 42.73 57.04 43.84 51.96 42.85 47.19 C 41.51 44.44 38.84 42.66 36.77 40.49 C 33.42 43.63 27.80 46.59 28.68 51.98 C 29.22 58.26 32.88 64.46 30.79 70.81 C 28.18 79.22 16.60 82.66 9.67 77.34 C 3.32 73.54 1.98 64.06 6.27 58.27 C 11.36 53.03 19.68 52.02 23.97 45.89 C 25.39 40.44 24.33 34.71 25.07 29.16 Z" />
<path fill="#d68805" stroke="#d68805" stroke-width="0.09375" opacity="0.85" d=" M 14.54 39.68 C 17.73 40.64 19.79 43.41 20.50 46.57 C 17.14 45.89 14.81 43.06 14.54 39.68 Z" />
<path fill="#d68805" stroke="#d68805" stroke-width="0.09375" opacity="0.85" d=" M 36.95 67.28 C 38.35 66.59 39.73 65.86 41.07 65.06 C 41.81 66.62 42.50 68.19 43.13 69.79 C 41.63 70.12 39.99 71.54 38.47 70.64 C 37.78 69.61 37.40 68.42 36.95 67.28 Z" />
<path fill="#d68805" stroke="#d68805" stroke-width="0.09375" opacity="0.85" d=" M 42.02 78.02 C 46.80 75.82 52.79 78.04 55.98 81.99 C 57.70 86.71 56.26 92.05 58.15 96.76 C 59.51 99.94 62.62 102.22 66.03 102.73 C 70.46 103.68 75.46 102.95 79.39 105.57 C 85.29 110.23 83.62 120.88 76.71 123.70 C 70.25 125.22 63.91 121.57 57.41 122.43 C 50.72 126.08 47.67 134.79 39.79 136.58 C 31.53 138.85 22.62 131.56 23.00 123.06 C 23.45 116.85 27.56 110.17 34.06 109.03 C 40.53 108.24 46.10 112.40 52.24 113.61 C 56.68 115.00 59.94 110.92 63.29 108.77 C 61.21 105.33 58.83 101.83 55.34 99.70 C 52.27 98.35 48.83 98.33 45.60 97.59 C 40.43 96.71 35.37 94.97 30.10 94.79 C 24.77 96.90 21.71 102.21 16.76 104.91 C 10.74 107.31 3.14 98.92 7.45 93.43 C 8.59 91.87 10.06 90.28 12.02 89.88 C 17.95 89.08 23.83 92.42 29.68 90.84 C 34.43 87.21 37.10 81.46 42.02 78.02 Z" />
<path fill="#d68805" stroke="#d68805" stroke-width="0.09375" opacity="0.85" d=" M 27.16 102.16 C 28.83 102.00 31.60 101.78 31.68 104.14 C 32.47 106.53 28.98 108.65 27.29 106.69 C 26.01 105.36 26.77 103.67 27.16 102.16 Z" />
<path fill="#d68805" stroke="#d68805" stroke-width="0.09375" opacity="0.85" d=" M 93.37 125.49 C 100.26 123.46 108.38 127.61 110.53 134.53 C 114.12 142.48 107.63 152.66 99.03 153.09 C 91.40 152.74 85.52 146.69 78.03 145.76 C 72.22 146.82 68.58 152.39 62.93 153.85 C 58.03 154.09 53.43 149.16 54.37 144.26 C 55.01 141.43 57.27 138.82 60.19 138.25 C 66.09 137.23 71.83 141.34 77.67 139.68 C 84.13 136.43 86.28 127.86 93.37 125.49 Z" />
<path fill="#d68805" stroke="#d68805" stroke-width="0.09375" opacity="0.85" d=" M 44.28 143.88 C 46.90 143.50 49.28 144.58 51.35 146.10 C 49.15 147.72 46.68 148.89 44.23 150.04 C 44.27 147.98 44.29 145.93 44.28 143.88 Z" />
</g>
<g id="#524c4255">
<path fill="#524c42" stroke="#524c42" stroke-width="0.09375" opacity="0.33" d=" M 73.96 82.01 C 74.38 76.14 80.76 70.99 86.61 72.30 C 88.82 72.75 89.90 75.59 88.22 77.20 C 85.18 80.03 80.63 79.53 76.82 80.25 C 76.89 81.37 77.06 82.48 77.33 83.58 C 80.75 86.55 85.53 84.86 89.54 84.58 C 87.36 87.75 83.09 87.90 79.63 87.40 C 76.93 86.97 73.50 85.28 73.96 82.01 M 78.77 77.95 C 81.06 77.74 83.33 77.30 85.55 76.67 C 85.63 76.01 85.79 74.70 85.87 74.04 C 83.00 74.25 80.20 75.28 78.77 77.95 Z" />
</g>
</svg>
