<?xml version="1.0" encoding="UTF-8" ?>
<!DOCTYPE svg PUBLIC "-//W3C//DTD SVG 1.1//EN" "http://www.w3.org/Graphics/SVG/1.1/DTD/svg11.dtd">
<svg width="160pt" height="160pt" viewBox="0 0 160 160" version="1.1" xmlns="http://www.w3.org/2000/svg">
<g id="#0c214eff">
<path fill="#0c214e" stroke="#0c214e" stroke-width="0.09375" opacity="1.00" d=" M 62.88 19.00 C 64.05 11.29 72.48 6.13 79.91 7.98 C 86.30 10.01 89.62 16.59 95.41 19.57 C 101.60 20.19 106.92 15.90 112.98 15.57 C 118.03 16.09 120.20 22.38 118.66 26.68 C 117.69 29.82 114.08 31.35 111.01 31.08 C 106.29 29.99 102.87 25.82 98.02 25.06 C 93.08 24.92 89.18 28.47 85.24 30.94 C 86.76 34.02 87.48 38.45 91.32 39.48 C 98.10 41.63 104.38 45.19 111.25 47.07 C 117.27 45.15 121.28 39.42 127.33 37.46 C 135.08 35.36 144.13 41.89 143.98 50.06 C 143.67 55.11 140.36 59.30 139.14 64.10 C 139.15 67.67 142.22 70.35 145.23 71.73 C 147.66 73.02 150.62 73.45 152.68 75.34 C 156.45 79.94 152.93 87.92 146.95 88.14 C 141.49 87.64 137.57 82.53 132.03 82.31 C 125.52 83.05 121.80 89.47 115.96 91.71 C 110.79 92.99 105.00 89.43 103.71 84.28 C 102.02 78.55 105.91 71.53 111.96 70.62 C 118.61 70.72 122.92 76.76 129.01 78.53 C 133.31 78.95 137.21 76.57 141.11 75.10 C 139.48 72.04 138.43 68.50 135.95 66.01 C 131.75 64.00 126.87 63.72 122.84 61.26 C 118.90 59.06 115.56 55.46 110.96 54.66 C 105.55 55.77 101.37 60.01 95.93 61.05 C 92.02 61.69 87.37 60.21 85.68 56.36 C 82.81 50.30 88.73 43.56 85.39 37.60 C 82.72 34.05 77.58 35.24 73.77 34.04 C 66.76 33.22 61.20 26.00 62.88 19.00 Z" />
<path fill="#0c214e" stroke="#0c214e" stroke-width="0.09375" opacity="1.00" d=" M 128.19 24.62 C 129.70 24.62 131.21 24.62 132.72 24.62 C 133.23 25.96 133.75 27.30 134.27 28.65 C 132.32 29.12 130.37 29.59 128.42 30.05 C 128.35 28.24 128.28 26.43 128.19 24.62 Z" />
<path fill="#0c214e" stroke="#0c214e" stroke-width="0.09375" opacity="1.00" d=" M 146.50 61.42 C 148.10 60.94 150.53 62.08 150.18 64.02 C 150.08 65.97 147.80 67.07 146.16 66.09 C 143.91 65.42 144.33 61.91 146.50 61.42 Z" />
<path fill="#0c214e" stroke="#0c214e" stroke-width="0.09375" opacity="1.00" d=" M 129.79 87.27 C 131.59 86.90 133.39 86.53 135.19 86.14 C 135.61 87.78 136.04 89.42 136.48 91.06 C 134.82 91.53 133.17 91.99 131.52 92.46 C 130.95 90.73 130.38 89.00 129.79 87.27 Z" />
<path fill="#0c214e" stroke="#0c214e" stroke-width="0.09375" opacity="1.00" d=" M 125.09 100.17 C 129.08 94.62 137.31 93.39 142.99 97.01 C 150.71 100.98 152.17 113.01 145.60 118.68 C 139.75 123.28 131.28 121.89 125.44 126.50 C 123.03 131.23 123.34 136.95 120.64 141.57 C 118.43 144.12 114.50 144.31 111.49 143.33 C 108.77 141.89 107.52 138.70 107.29 135.77 C 107.07 131.74 107.30 127.71 107.07 123.68 C 109.84 125.30 112.61 127.71 116.01 127.52 C 120.26 126.65 122.56 122.03 122.52 117.98 C 122.86 112.06 120.74 105.12 125.09 100.17 Z" />
<path fill="#0c214e" stroke="#0c214e" stroke-width="0.09375" opacity="1.00" d=" M 89.95 115.96 C 85.55 109.53 91.58 100.18 98.97 100.12 C 103.15 100.19 107.95 102.20 109.28 106.51 C 111.00 111.91 108.04 117.18 106.62 122.28 C 100.86 121.26 93.33 121.78 89.95 115.96 Z" />
</g>
<g id="#fba007ff">
<path fill="#fba007" stroke="#fba007" stroke-width="0.09375" opacity="1.00" d=" M 41.55 18.64 C 45.31 16.48 51.18 16.25 53.73 20.33 C 55.26 25.81 54.15 31.59 54.07 37.18 C 59.56 39.45 66.17 39.95 70.44 44.46 C 74.06 48.88 73.55 56.35 68.45 59.46 C 62.79 63.56 53.31 60.17 51.93 53.21 C 52.02 48.49 54.03 44.00 53.94 39.28 C 52.90 36.66 51.18 34.40 49.72 32.01 C 46.47 33.94 42.58 35.25 40.21 38.32 C 37.68 45.09 41.14 52.93 37.32 59.37 C 33.10 66.83 21.35 67.69 15.86 61.22 C 10.58 56.26 11.29 47.18 16.34 42.35 C 22.40 38.27 30.73 39.26 36.37 34.39 C 39.13 29.52 38.86 23.51 41.55 18.64 Z" />
<path fill="#fba007" stroke="#fba007" stroke-width="0.09375" opacity="1.00" d=" M 28.71 26.02 C 31.60 27.94 32.94 31.22 33.12 34.59 C 30.10 32.80 28.17 29.61 28.71 26.02 Z" />
<path fill="#fba007" stroke="#fba007" stroke-width="0.09375" opacity="1.00" d=" M 43.59 57.88 C 45.14 57.39 46.68 56.90 48.23 56.41 C 48.59 57.98 48.95 59.54 49.31 61.11 C 47.84 61.45 46.38 61.79 44.92 62.13 C 44.47 60.72 44.03 59.30 43.59 57.88 Z" />
<path fill="#fba007" stroke="#fba007" stroke-width="0.09375" opacity="1.00" d=" M 32.63 77.85 C 37.41 75.34 41.08 71.07 46.10 69.00 C 51.27 67.89 56.67 71.50 58.70 76.18 C 59.04 82.13 55.06 88.67 58.82 94.15 C 62.64 99.91 70.93 98.73 75.44 103.56 C 80.22 109.49 75.74 119.87 68.09 120.28 C 61.95 119.77 56.96 115.40 50.88 114.63 C 44.26 116.37 39.82 122.74 32.97 123.95 C 26.96 124.99 20.68 121.38 18.54 115.69 C 14.64 107.05 22.63 95.98 31.96 96.64 C 39.28 97.64 43.88 104.72 51.06 106.07 C 54.11 105.52 56.87 104.04 59.71 102.87 C 58.30 99.81 57.17 96.57 55.15 93.85 C 53.36 91.34 50.22 90.62 47.57 89.42 C 42.15 87.24 37.12 84.14 31.60 82.24 C 25.78 82.62 21.50 87.41 15.99 88.82 C 9.81 89.54 4.66 80.07 9.81 75.82 C 11.23 74.59 12.97 73.45 14.90 73.39 C 19.58 73.89 23.53 76.70 28.00 77.92 C 29.51 78.29 31.24 78.90 32.63 77.85 Z" />
<path fill="#fba007" stroke="#fba007" stroke-width="0.09375" opacity="1.00" d=" M 26.22 89.34 C 29.23 86.32 32.57 92.65 28.85 93.88 C 26.22 95.24 24.09 90.93 26.22 89.34 Z" />
<path fill="#fba007" stroke="#fba007" stroke-width="0.09375" opacity="1.00" d=" M 80.48 126.68 C 88.25 123.18 97.92 129.75 98.49 138.04 C 100.25 146.58 91.46 154.99 83.04 153.17 C 76.06 150.91 71.85 144.05 65.04 141.46 C 59.36 141.25 54.68 145.50 49.07 145.77 C 43.23 144.99 39.89 136.57 44.56 132.48 C 47.35 129.46 51.90 130.06 55.19 131.86 C 59.26 133.46 63.58 137.13 68.14 135.04 C 72.62 132.82 76.02 128.94 80.48 126.68 Z" />
<path fill="#fba007" stroke="#fba007" stroke-width="0.09375" opacity="1.00" d=" M 33.48 132.01 C 36.16 132.26 38.15 134.02 39.82 135.98 C 37.19 136.63 34.57 137.30 31.96 138.02 C 32.47 136.02 32.98 134.02 33.48 132.01 Z" />
</g>
</svg>
